<svg xmlns="http://www.w3.org/2000/svg" width="500" height="500" viewBox="0 0 39 39" shape-rendering="crispEdges"><path fill="#FFFFFF" d="M0 0h39v39H0z"/><path stroke="#000000" d="M3 3.5h7m3 0h2m4 0h1m1 0h2m2 0h3m1 0h7M3 4.5h1m5 0h1m8 0h2m1 0h1m1 0h1m1 0h1m3 0h1m5 0h1M3 5.5h1m1 0h3m1 0h1m1 0h1m2 0h1m2 0h1m1 0h1m3 0h2m2 0h1m1 0h1m1 0h3m1 0h1M3 6.5h1m1 0h3m1 0h1m1 0h1m1 0h1m1 0h1m2 0h1m1 0h1m4 0h1m1 0h1m1 0h1m1 0h3m1 0h1M3 7.5h1m1 0h3m1 0h1m1 0h1m3 0h1m1 0h4m1 0h2m1 0h3m1 0h1m1 0h3m1 0h1M3 8.5h1m5 0h1m1 0h1m3 0h1m1 0h1m6 0h1m2 0h1m1 0h1m5 0h1M3 9.5h7m1 0h1m1 0h1m1 0h1m1 0h1m1 0h1m1 0h1m1 0h1m1 0h1m1 0h1m1 0h7M11 10.5h1m1 0h1m1 0h1m3 0h1m2 0h5M3 11.5h1m1 0h5m2 0h1m1 0h1m1 0h1m2 0h5m5 0h5M4 12.5h1m1 0h1m3 0h1m1 0h1m1 0h1m1 0h2m4 0h1m1 0h4m1 0h2m1 0h4M3 13.5h1m1 0h3m1 0h3m3 0h5m1 0h1m5 0h2m2 0h1m1 0h1M5 14.5h3m3 0h2m1 0h1m1 0h1m1 0h1m2 0h1m1 0h2m1 0h2m3 0h5M3 15.5h1m1 0h1m1 0h1m1 0h2m1 0h2m3 0h1m1 0h2m4 0h1m2 0h1m2 0h2m1 0h1M3 16.5h1m4 0h1m1 0h1m2 0h1m4 0h1m3 0h1m1 0h1m1 0h2m1 0h2m2 0h3M4 17.5h1m1 0h1m2 0h2m1 0h1m1 0h1m1 0h1m1 0h2m4 0h2m1 0h3m1 0h1m1 0h2M4 18.5h1m2 0h1m2 0h3m1 0h3m1 0h1m2 0h1m1 0h3m1 0h4m1 0h2M3 19.5h4m2 0h5m3 0h5m1 0h1m1 0h2m1 0h1m1 0h2m3 0h1M5 20.5h1m2 0h1m1 0h6m1 0h1m4 0h1m1 0h1m1 0h2m1 0h2m1 0h4M3 21.5h1m2 0h5m1 0h1m4 0h3m1 0h1m2 0h2m2 0h1m1 0h2m1 0h1M5 22.5h4m2 0h2m1 0h1m1 0h4m1 0h1m1 0h3m2 0h1m1 0h5M4 23.5h7m1 0h1m1 0h2m5 0h1m1 0h1m1 0h1m2 0h1m1 0h3m1 0h2M3 24.5h3m2 0h1m3 0h1m4 0h3m1 0h7m1 0h1m2 0h2m1 0h1M3 25.5h1m1 0h3m1 0h2m1 0h1m2 0h2m3 0h1m2 0h3m1 0h1m2 0h2m2 0h1M3 26.5h1m1 0h2m3 0h1m3 0h4m1 0h1m4 0h1m1 0h1m2 0h1m3 0h3M3 27.5h1m1 0h6m3 0h1m1 0h2m2 0h1m1 0h1m4 0h6m1 0h1M11 28.5h2m1 0h2m1 0h1m2 0h5m2 0h1m3 0h1m1 0h1m1 0h1M3 29.5h7m2 0h1m1 0h2m2 0h3m2 0h2m1 0h2m1 0h1m1 0h1m1 0h1M3 30.5h1m5 0h1m1 0h1m1 0h2m1 0h3m1 0h2m2 0h1m1 0h2m3 0h3m1 0h1M3 31.5h1m1 0h3m1 0h1m1 0h1m1 0h1m1 0h1m2 0h2m2 0h1m2 0h1m1 0h6m1 0h1M3 32.5h1m1 0h3m1 0h1m1 0h1m2 0h1m3 0h1m2 0h3m7 0h1m2 0h2M3 33.5h1m1 0h3m1 0h1m1 0h1m4 0h1m1 0h3m3 0h7m2 0h1M3 34.5h1m5 0h1m2 0h2m4 0h1m2 0h1m1 0h3m2 0h1m2 0h1m1 0h1M3 35.5h7m1 0h2m2 0h1m2 0h6m2 0h2m1 0h2m1 0h1m1 0h1"/></svg>
