<svg xmlns="http://www.w3.org/2000/svg" width="600" height="700" viewBox="0 0 600 700">
  <!-- Background -->
  <rect width="600" height="700" fill="#f8f9fa"/>
  
  <!-- Container -->
  <rect x="50" y="50" width="500" height="600" rx="20" fill="white" stroke="#E53E3E" stroke-width="3"/>
  
  <!-- Title -->
  <text x="300" y="120" text-anchor="middle" font-family="Arial, sans-serif" font-size="36" font-weight="bold" fill="#E53E3E">DREAMSPEAK</text>
  <text x="300" y="150" text-anchor="middle" font-family="Arial, sans-serif" font-size="16" fill="#666">Jungian Dream Decoder</text>
  
  <!-- QR Code Pattern -->
  <g transform="translate(175, 200)">
    <!-- White background for QR -->
    <rect x="0" y="0" width="250" height="250" fill="white" stroke="#333" stroke-width="2"/>
    
    <!-- Corner squares -->
    <rect x="10" y="10" width="70" height="70" fill="black"/>
    <rect x="20" y="20" width="50" height="50" fill="white"/>
    <rect x="30" y="30" width="30" height="30" fill="black"/>
    
    <rect x="170" y="10" width="70" height="70" fill="black"/>
    <rect x="180" y="20" width="50" height="50" fill="white"/>
    <rect x="190" y="30" width="30" height="30" fill="black"/>
    
    <rect x="10" y="170" width="70" height="70" fill="black"/>
    <rect x="20" y="180" width="50" height="50" fill="white"/>
    <rect x="30" y="190" width="30" height="30" fill="black"/>
    
    <!-- Data pattern (simplified) -->
    <rect x="90" y="10" width="10" height="10" fill="black"/>
    <rect x="110" y="10" width="10" height="10" fill="black"/>
    <rect x="130" y="10" width="10" height="10" fill="black"/>
    <rect x="150" y="10" width="10" height="10" fill="black"/>
    
    <rect x="10" y="90" width="10" height="10" fill="black"/>
    <rect x="30" y="90" width="10" height="10" fill="black"/>
    <rect x="50" y="90" width="10" height="10" fill="black"/>
    <rect x="70" y="90" width="10" height="10" fill="black"/>
    
    <rect x="90" y="30" width="10" height="10" fill="black"/>
    <rect x="90" y="50" width="10" height="10" fill="black"/>
    <rect x="90" y="70" width="10" height="10" fill="black"/>
    <rect x="90" y="90" width="10" height="10" fill="black"/>
    <rect x="90" y="110" width="10" height="10" fill="black"/>
    <rect x="90" y="130" width="10" height="10" fill="black"/>
    <rect x="90" y="150" width="10" height="10" fill="black"/>
    
    <rect x="110" y="30" width="10" height="10" fill="black"/>
    <rect x="130" y="30" width="10" height="10" fill="black"/>
    <rect x="150" y="30" width="10" height="10" fill="black"/>
    
    <rect x="110" y="50" width="10" height="10" fill="black"/>
    <rect x="130" y="70" width="10" height="10" fill="black"/>
    <rect x="150" y="50" width="10" height="10" fill="black"/>
    
    <rect x="110" y="90" width="10" height="10" fill="black"/>
    <rect x="130" y="90" width="10" height="10" fill="black"/>
    <rect x="150" y="90" width="10" height="10" fill="black"/>
    
    <rect x="110" y="110" width="10" height="10" fill="black"/>
    <rect x="130" y="110" width="10" height="10" fill="black"/>
    <rect x="150" y="110" width="10" height="10" fill="black"/>
    
    <rect x="110" y="130" width="10" height="10" fill="black"/>
    <rect x="130" y="130" width="10" height="10" fill="black"/>
    <rect x="150" y="130" width="10" height="10" fill="black"/>
    
    <rect x="110" y="150" width="10" height="10" fill="black"/>
    <rect x="130" y="150" width="10" height="10" fill="black"/>
    <rect x="150" y="150" width="10" height="10" fill="black"/>
    
    <rect x="110" y="170" width="10" height="10" fill="black"/>
    <rect x="130" y="170" width="10" height="10" fill="black"/>
    <rect x="150" y="170" width="10" height="10" fill="black"/>
    <rect x="170" y="170" width="10" height="10" fill="black"/>
    <rect x="190" y="170" width="10" height="10" fill="black"/>
    <rect x="210" y="170" width="10" height="10" fill="black"/>
    <rect x="230" y="170" width="10" height="10" fill="black"/>
    
    <rect x="90" y="190" width="10" height="10" fill="black"/>
    <rect x="110" y="190" width="10" height="10" fill="black"/>
    <rect x="130" y="190" width="10" height="10" fill="black"/>
    <rect x="150" y="190" width="10" height="10" fill="black"/>
    
    <rect x="90" y="210" width="10" height="10" fill="black"/>
    <rect x="110" y="210" width="10" height="10" fill="black"/>
    <rect x="130" y="210" width="10" height="10" fill="black"/>
    <rect x="150" y="210" width="10" height="10" fill="black"/>
    <rect x="170" y="210" width="10" height="10" fill="black"/>
    <rect x="190" y="210" width="10" height="10" fill="black"/>
    <rect x="210" y="210" width="10" height="10" fill="black"/>
    <rect x="230" y="210" width="10" height="10" fill="black"/>
    
    <rect x="90" y="230" width="10" height="10" fill="black"/>
    <rect x="110" y="230" width="10" height="10" fill="black"/>
    <rect x="130" y="230" width="10" height="10" fill="black"/>
    <rect x="150" y="230" width="10" height="10" fill="black"/>
    <rect x="170" y="230" width="10" height="10" fill="black"/>
    <rect x="190" y="230" width="10" height="10" fill="black"/>
    <rect x="210" y="230" width="10" height="10" fill="black"/>
    <rect x="230" y="230" width="10" height="10" fill="black"/>
  </g>
  
  <!-- Instructions -->
  <text x="300" y="490" text-anchor="middle" font-family="Arial, sans-serif" font-size="18" font-weight="bold" fill="#333">📱 Scan with phone camera</text>
  
  <!-- URL Box -->
  <rect x="75" y="520" width="450" height="60" rx="10" fill="#f0f0f0" stroke="#E53E3E" stroke-width="2"/>
  <text x="300" y="540" text-anchor="middle" font-family="monospace" font-size="11" fill="#333">https://b6e2195d-9d45-47f1-97d6-70f86c4eff86</text>
  <text x="300" y="555" text-anchor="middle" font-family="monospace" font-size="11" fill="#333">-00-12k1zs8jp9eml.riker.replit.dev</text>
  
  <!-- Features -->
  <text x="300" y="610" text-anchor="middle" font-family="Arial, sans-serif" font-size="14" font-weight="bold" fill="#E53E3E">Features: AI Dream Analysis • Memory Capsules • Vision Boards</text>
</svg>