<?xml version="1.0" encoding="UTF-8" standalone="no"?>
<!-- Created with Inkscape (http://www.inkscape.org/) -->

<svg
   version="1.1"
   id="svg1"
   width="8000"
   height="5333.3335"
   viewBox="0 0 8000 5333.3335"
   sodipodi:docname="vecteezy_red-female-lips-valentine-s-day-romantic-clipart-lipstick_.eps"
   xmlns:inkscape="http://www.inkscape.org/namespaces/inkscape"
   xmlns:sodipodi="http://sodipodi.sourceforge.net/DTD/sodipodi-0.dtd"
   xmlns="http://www.w3.org/2000/svg"
   xmlns:svg="http://www.w3.org/2000/svg">
  <defs
     id="defs1" />
  <sodipodi:namedview
     id="namedview1"
     pagecolor="#ffffff"
     bordercolor="#000000"
     borderopacity="0.25"
     inkscape:showpageshadow="2"
     inkscape:pageopacity="0.0"
     inkscape:pagecheckerboard="0"
     inkscape:deskcolor="#d1d1d1">
    <inkscape:page
       x="0"
       y="0"
       inkscape:label="1"
       id="page1"
       width="8000"
       height="5333.3335"
       margin="0"
       bleed="0" />
  </sodipodi:namedview>
  <g
     id="g1"
     inkscape:groupmode="layer"
     inkscape:label="1">
    <g
       id="group-R5">
      <path
         id="path2"
         d="M 60000,0 H 0 V 40000 H 60000 V 0"
         style="fill:#ffffff;fill-opacity:1;fill-rule:nonzero;stroke:none"
         transform="matrix(0.13333333,0,0,-0.13333333,0,5333.3333)" />
      <path
         id="path3"
         d="m 9801.83,21486.6 c -446.37,-740.7 939.07,-1651.7 1776.87,-3107.4 1478.7,-2569.5 2687.7,-6072.7 5343.3,-7435.3 946.8,-485.9 2002.7,-722.1 3050,-928.4 3690.2,-727.3 7444.3,-1143.6 11208.2,-1243.1 1127.2,-29.8 2266.8,-30.1 3368.2,212.8 1024,225.7 1988.3,655.6 2959.5,1048.4 1540.4,623.1 3123.1,1162 4578,1961.4 1454.8,799.4 2798.8,1894.5 3563.1,3354.2 1176.8,2247.6 5786.5,3965.2 4487.2,6137.4 -1299.2,2172.3 -8389.8,4883.9 -10585.4,6175.7 0,0 0,0 -0.1,0 -3547.3,2087 -7631.1,3495.1 -11801.5,3483.7 -1832.4,-4.9 -3828.8,-209.8 -5450.8,-1131.7 -1298.9,-738.3 -2258.5,-2172 -3173.9,-3302.9 C 17616.2,24847.9 11037,23536.1 9801.83,21486.6"
         style="fill:#4d2d27;fill-opacity:1;fill-rule:nonzero;stroke:none"
         transform="matrix(0.13333333,0,0,-0.13333333,0,5333.3333)" />
      <path
         id="path4"
         d="m 27937.9,19836.4 c -523.9,0 -1024.4,125.3 -1556.2,89.5 -641.9,-43.3 -1398.9,-234.4 -1988.3,115.4 -487.5,289.4 -797.6,854.5 -797.6,1454.4 v 2994 H 29477 v -2994 c 0,-916.4 -689.1,-1659.3 -1539.1,-1659.3"
         style="fill:#ffffff;fill-opacity:1;fill-rule:nonzero;stroke:none"
         transform="matrix(0.13333333,0,0,-0.13333333,0,5333.3333)" />
      <path
         id="path5"
         d="m 34025.5,19836.4 c -524,0 -1024.4,125.3 -1556.3,89.5 -641.8,-43.3 -1398.8,-234.4 -1988.3,115.4 -487.4,289.4 -797.5,854.5 -797.5,1454.4 v 2994 h 5881.2 v -2994 c 0,-916.4 -689.1,-1659.3 -1539.1,-1659.3"
         style="fill:#ffffff;fill-opacity:1;fill-rule:nonzero;stroke:none"
         transform="matrix(0.13333333,0,0,-0.13333333,0,5333.3333)" />
      <path
         id="path6"
         d="m 40113,20089 c -523.9,0 -1024.4,125.3 -1556.2,89.4 -641.9,-43.3 -1398.9,-234.4 -1988.3,115.5 -487.5,289.3 -797.6,854.5 -797.6,1454.3 v 2994.1 h 5881.2 v -2994.1 c 0,-916.3 -689.1,-1659.2 -1539.1,-1659.2"
         style="fill:#ffffff;fill-opacity:1;fill-rule:nonzero;stroke:none"
         transform="matrix(0.13333333,0,0,-0.13333333,0,5333.3333)" />
      <path
         id="path7"
         d="m 21850.4,20089 c -524,0 -1024.4,125.3 -1556.3,89.4 -641.8,-43.3 -1398.8,-234.4 -1988.3,115.5 -487.4,289.3 -797.5,854.5 -797.5,1454.3 v 2994.1 h 5881.2 v -2994.1 c 0,-916.3 -689.1,-1659.2 -1539.1,-1659.2"
         style="fill:#ffffff;fill-opacity:1;fill-rule:nonzero;stroke:none"
         transform="matrix(0.13333333,0,0,-0.13333333,0,5333.3333)" />
      <path
         id="path8"
         d="m 54021.3,21467.4 c 0.9,-0.8 1.9,-1.6 2.8,-2.4 0.4,1.2 -0.8,2 -2.8,2.4"
         style="fill:#d52f34;fill-opacity:1;fill-rule:nonzero;stroke:none"
         transform="matrix(0.13333333,0,0,-0.13333333,0,5333.3333)" />
      <path
         id="path9"
         d="m 52738.3,20999.4 c -997.4,-288 -1876.4,-515.4 -2701.7,-688.7 -5255.4,-1525.6 -14481.9,-4023.2 -20036.6,-4063.8 -7738.2,-56.4 -12196.3,2412.2 -19954.2,4336.5 -1020.37,156.7 -2031.86,352 -3021.65,575.8 -349.45,79 -708.64,152.8 -1045.86,304.7 109.68,-159.4 3848.59,-8913.4 13307.41,-14013.1 4657.1,-2472.5 10818.7,-3711.1 17254,-1785.6 6347.7,1874.4 13925.1,6894.3 17484.4,15799.8 -337.9,-152.7 -940.7,-365.9 -1285.8,-465.6"
         style="fill:#d52f34;fill-opacity:1;fill-rule:nonzero;stroke:none"
         transform="matrix(0.13333333,0,0,-0.13333333,0,5333.3333)" />
      <path
         id="path10"
         d="m 10045.8,20583.4 c 2115.5,-324.9 4269.7,-481.8 6351.8,-367.6 1929.7,105.7 3662.6,810.3 5514.9,1443.1 1626.6,555.7 3317.4,1007.5 4969.6,1134.8 988.9,76.2 1982.3,144.8 2973,139.4 v -0.5 c 15,-0.2 30.1,0.5 45,0.7 33.3,-0.3 66.6,0.8 99.9,0.4 33.2,0.4 66.5,-0.7 99.8,-0.4 15,-0.2 30,-0.9 45,-0.7 v 0.5 c 990.7,5.4 1984.1,-63.2 2973,-139.4 1652.2,-127.3 3343,-579.1 4969.6,-1134.8 1852.3,-632.8 4281.2,-1637.6 6210.9,-1743.4 2164,-118.6 3802.3,-11.4 5738.3,395.2 825.3,173.3 1704.3,400.7 2701.7,688.7 345.1,99.7 947.9,312.9 1285.8,465.6 -0.9,0.8 -1.9,1.6 -2.8,2.4 -5424.6,4581.7 -10036.8,9212.6 -15784.4,12713.1 -2593.3,1579.4 -4900.2,1471.8 -7398.2,-444.3 -178.4,-136.9 -540.7,-559.6 -838.7,-796.5 -298.1,236.9 -660.3,659.6 -838.7,796.5 -2498.1,1916.1 -4805,2023.7 -7398.3,444.3 -5748.6,-3501.1 -10361.4,-8133 -15787.2,-12715.5 0.83,-0.4 1.67,-0.7 2.49,-1.1 337.22,-151.9 696.41,-225.7 1045.86,-304.7 989.79,-223.8 2001.28,-419.1 3021.65,-575.8"
         style="fill:#d52f34;fill-opacity:1;fill-rule:nonzero;stroke:none"
         transform="matrix(0.13333333,0,0,-0.13333333,0,5333.3333)" />
      <path
         id="path11"
         d="m 24475.8,32923.3 c -1567.7,-943.6 -3122.9,-1835.5 -4627.5,-2857.4 -1515,-1007 -2930.5,-2108.3 -4406.7,-3190.1 2119.7,2930.3 5511.1,5216.9 9034.2,6047.5 v 0"
         style="fill:#ffffff;fill-opacity:1;fill-rule:nonzero;stroke:none"
         transform="matrix(0.13333333,0,0,-0.13333333,0,5333.3333)" />
      <path
         id="path12"
         d="m 13533.1,25608.2 c 529.3,0 530.2,822.6 0,822.6 -529.3,0 -530.2,-822.6 0,-822.6 v 0"
         style="fill:#ffffff;fill-opacity:1;fill-rule:nonzero;stroke:none"
         transform="matrix(0.13333333,0,0,-0.13333333,0,5333.3333)" />
    </g>
  </g>
</svg>
